HIERARCHY
ROOT joint_Root
{
	OFFSET 0.0 0.0 0.0
	CHANNELS 6 Xposition Yposition Zposition Zrotation Xrotation Yrotation 
	JOINT Hips
	{
		OFFSET -0.726466 93.3139 -2.00062
		CHANNELS 6 Xposition Yposition Zposition Zrotation Xrotation Yrotation 
		JOINT Spine
		{
			OFFSET 15.7357 0.0 0.0
			CHANNELS 6 Xposition Yposition Zposition Zrotation Xrotation Yrotation 
			JOINT Chest
			{
				OFFSET 8.98455 -0.406207 0.0
				CHANNELS 6 Xposition Yposition Zposition Zrotation Xrotation Yrotation 
				JOINT Neck
				{
					OFFSET 16.3773 0.0 0.0
					CHANNELS 6 Xposition Yposition Zposition Zrotation Xrotation Yrotation 
					JOINT Head
					{
						OFFSET 6.45672 0.0 0.0
						CHANNELS 6 Xposition Yposition Zposition Zrotation Xrotation Yrotation 
						End Site
						{
							OFFSET 0.0 0.0 0.0
						}
					}
				}
				JOINT Shoulder_L
				{
					OFFSET 12.9942 -0.242716 4.98039
					CHANNELS 6 Xposition Yposition Zposition Zrotation Xrotation Yrotation 
					JOINT UpperArm_L
					{
						OFFSET 5.34809 0.0 0.0
						CHANNELS 6 Xposition Yposition Zposition Zrotation Xrotation Yrotation 
						JOINT LowerArm_L
						{
							OFFSET 24.3286 1.87007e-05 0.0
							CHANNELS 6 Xposition Yposition Zposition Zrotation Xrotation Yrotation 
							JOINT Hand_L
							{
								OFFSET 22.2916 0.0 0.0
								CHANNELS 6 Xposition Yposition Zposition Zrotation Xrotation Yrotation 
								End Site
								{
									OFFSET 0.0 0.0 0.0
								}
							}
						}
					}
				}
				JOINT Shoulder_R
				{
					OFFSET 12.9945 -0.242716 -4.98039
					CHANNELS 6 Xposition Yposition Zposition Zrotation Xrotation Yrotation 
					JOINT UpperArm_R
					{
						OFFSET -5.34813 0.0 0.0
						CHANNELS 6 Xposition Yposition Zposition Zrotation Xrotation Yrotation 
						JOINT LowerArm_R
						{
							OFFSET -24.3289 0.000322201 0.0
							CHANNELS 6 Xposition Yposition Zposition Zrotation Xrotation Yrotation 
							JOINT Hand_R
							{
								OFFSET -22.2915 -0.000108084 0.0
								CHANNELS 6 Xposition Yposition Zposition Zrotation Xrotation Yrotation 
								End Site
								{
									OFFSET 0.0 0.0 0.0
								}
							}
						}
					}
				}
			}
		}
		JOINT UpperLeg_L
		{
			OFFSET -2.19248 -6.46944 0.0
			CHANNELS 6 Xposition Yposition Zposition Zrotation Xrotation Yrotation 
			JOINT LowerLeg_L
			{
				OFFSET 39.0811 0.0 -1.23785e-05
				CHANNELS 6 Xposition Yposition Zposition Zrotation Xrotation Yrotation 
				JOINT Foot_L
				{
					OFFSET 40.9854 0.0 -1.26872e-05
					CHANNELS 6 Xposition Yposition Zposition Zrotation Xrotation Yrotation 
					JOINT Toes_L
					{
						OFFSET 11.7543 0.0 0.0
						CHANNELS 6 Xposition Yposition Zposition Zrotation Xrotation Yrotation 
						End Site
						{
							OFFSET 0.0 0.0 0.0
						}
					}
				}
			}
		}
		JOINT UpperLeg_R
		{
			OFFSET -2.19251 6.46944 0.0
			CHANNELS 6 Xposition Yposition Zposition Zrotation Xrotation Yrotation 
			JOINT LowerLeg_R
			{
				OFFSET -39.0811 -0.00228153 -0.0401928
				CHANNELS 6 Xposition Yposition Zposition Zrotation Xrotation Yrotation 
				JOINT Foot_R
				{
					OFFSET -40.9854 0.0 0.0
					CHANNELS 6 Xposition Yposition Zposition Zrotation Xrotation Yrotation 
					JOINT Toes_R
					{
						OFFSET -11.7543 0.0 0.0
						CHANNELS 6 Xposition Yposition Zposition Zrotation Xrotation Yrotation 
						End Site
						{
							OFFSET 0.0 0.0 0.0
						}
					}
				}
			}
		}
	}
}
MOTION
Frames:	7
Frame Time:	0.0333333
0.000000 0.000000 0.000000 0.000000 0.000000 -0.000000 -2.078990 92.212500 1.075900 89.164700 0.573913 2.084050 15.735700 0.000005 -0.000001 64.741500 85.582600 -59.824900 8.984550 -0.406207 -0.000000 0.420583 -4.083190 9.844940 16.377300 -0.000001 -0.000001 -0.163002 -0.472127 -1.503950 6.456720 -0.000001 -0.000000 -2.705130 -0.982047 10.102900 12.994200 -0.242716 4.980390 -83.480100 -12.274000 -61.737600 5.348090 -0.000007 -0.000001 -45.035700 -61.120800 -66.706000 24.328600 0.000019 0.000005 -0.663180 -0.990237 -33.761300 22.291600 -0.000001 0.000005 19.941200 5.532240 -7.895380 12.994500 -0.242716 -4.980390 90.928200 -2.282090 -67.859700 -5.348130 -0.000001 -0.000004 -63.348300 69.512900 14.402500 -24.328900 0.000322 -0.000009 21.068900 2.028260 -84.752000 -22.291500 -0.000108 -0.000004 33.742100 5.630620 -28.857500 -2.192480 -6.469440 -0.000000 -170.495000 -17.986400 -3.593110 39.081100 -0.000007 -0.000012 -0.133548 0.377641 19.475500 40.985400 -0.000006 -0.000013 -7.012960 -1.047140 -61.544300 11.754300 -0.000000 0.000003 -0.000140 -0.001373 -16.629900 -2.192510 6.469440 -0.000001 173.895000 20.484100 178.470000 -39.081100 -0.002282 -0.040193 -0.080864 0.243213 19.093100 -40.985400 0.000008 0.000006 -4.857230 0.639944 -63.547100 -11.754300 -0.000006 -0.000006 -0.000850 -0.013252 -17.112200
0.000000 0.000000 0.000000 0.000000 0.000000 -0.000000 -2.174220 92.206900 1.020680 89.136400 0.816499 2.124770 15.735700 0.000005 -0.000001 64.762700 85.472700 -59.801200 8.984550 -0.406207 -0.000000 0.626924 -4.167770 9.942320 16.377300 -0.000001 -0.000001 -0.305347 -0.804619 -1.332590 6.456720 -0.000001 -0.000000 -2.761790 -1.244370 10.078800 12.994200 -0.242716 4.980390 -83.557400 -12.292300 -62.058700 5.348090 -0.000007 -0.000001 -46.884400 -60.656800 -62.779700 24.328600 0.000019 0.000005 0.091706 0.171533 -28.350700 22.291600 -0.000001 0.000005 20.362500 5.502820 -6.650650 12.994500 -0.242716 -4.980390 90.929400 -2.274240 -67.765100 -5.348130 -0.000001 -0.000004 -62.751700 69.598100 13.765400 -24.328900 0.000322 -0.000009 21.406000 2.003510 -84.904700 -22.291500 -0.000108 -0.000004 33.772500 5.632630 -28.705400 -2.192480 -6.469440 -0.000000 -170.401000 -17.847900 -3.651920 39.081100 -0.000007 -0.000012 -0.133482 0.377283 19.483800 40.985400 -0.000006 -0.000013 -7.046140 -0.906753 -61.457100 11.754300 -0.000000 0.000003 -0.000127 -0.001260 -16.625700 -2.192510 6.469440 -0.000001 174.022000 20.411700 178.453000 -39.081100 -0.002282 -0.040193 -0.080464 0.240651 19.196500 -40.985400 0.000008 0.000006 -4.830940 0.322364 -63.636800 -11.754300 -0.000006 -0.000006 -0.000735 -0.011572 -17.043900
0.000000 0.000000 0.000000 0.000000 0.000000 -0.000000 -2.219480 92.210300 0.954758 89.079600 0.939370 2.104030 15.735700 0.000005 -0.000001 65.216300 85.397600 -60.209300 8.984550 -0.406207 -0.000000 0.795675 -4.161150 10.039100 16.377300 -0.000001 -0.000001 -0.500014 -1.054800 -1.133900 6.456720 -0.000001 -0.000000 -2.822210 -1.417360 9.909870 12.994200 -0.242716 4.980390 -83.558200 -12.444500 -62.348000 5.348090 -0.000007 -0.000001 -53.338800 -61.334300 -63.340900 24.328600 0.000019 0.000005 0.766471 1.746380 -23.717200 22.291600 -0.000001 0.000005 20.502500 5.453860 -4.783630 12.994500 -0.242716 -4.980390 90.928700 -2.267630 -67.721800 -5.348130 -0.000001 -0.000004 -62.409600 69.698400 13.449000 -24.328900 0.000322 -0.000009 21.601500 1.989790 -84.989500 -22.291500 -0.000108 -0.000004 33.920200 5.632800 -28.692000 -2.192480 -6.469440 -0.000000 -170.346000 -17.787700 -3.772160 39.081100 -0.000007 -0.000012 -0.134887 0.380580 19.515700 40.985400 -0.000006 -0.000013 -7.048700 -0.875285 -61.401000 11.754300 -0.000000 0.000003 -0.000133 -0.001314 -16.627700 -2.192510 6.469440 -0.000001 174.158000 20.306500 178.409000 -39.081100 -0.002282 -0.040193 -0.077683 0.232938 19.175600 -40.985400 0.000008 0.000006 -4.825130 0.100848 -63.629000 -11.754300 -0.000006 -0.000006 -0.000886 -0.013769 -17.133200
0.000000 0.000000 0.000000 0.000000 0.000000 -0.000000 -2.234410 92.223400 0.874047 89.029200 1.037830 1.951080 15.735700 0.000005 -0.000001 65.575500 85.380400 -60.548400 8.984550 -0.406207 -0.000000 0.850167 -4.121670 10.080900 16.377300 -0.000001 -0.000001 -0.684861 -1.120690 -1.010090 6.456720 -0.000001 -0.000000 -2.966280 -1.444090 9.852120 12.994200 -0.242716 4.980390 -83.528100 -12.609300 -62.541600 5.348090 -0.000007 -0.000001 -61.170200 -62.505100 -65.886800 24.328600 0.000019 0.000005 1.219970 3.129320 -21.315900 22.291600 -0.000001 0.000005 21.309800 5.412050 -3.336900 12.994500 -0.242716 -4.980390 90.908800 -2.223420 -67.762000 -5.348130 -0.000001 -0.000004 -62.482700 69.630400 13.614800 -24.328900 0.000322 -0.000009 21.726500 1.962230 -85.089700 -22.291500 -0.000108 -0.000004 33.924900 5.632690 -28.699100 -2.192480 -6.469440 -0.000000 -170.365000 -17.647600 -4.006980 39.081100 -0.000007 -0.000012 -0.135486 0.382963 19.483100 40.985400 -0.000006 -0.000013 -7.053190 -0.950778 -61.323700 11.754300 -0.000000 0.000003 -0.000125 -0.001244 -16.625000 -2.192510 6.469440 -0.000001 174.295000 20.374200 178.239000 -39.081100 -0.002282 -0.040193 -0.076947 0.231985 19.086300 -40.985400 0.000008 0.000006 -4.805640 0.042217 -63.540200 -11.754300 -0.000006 -0.000006 -0.000845 -0.013183 -17.109400
0.000000 0.000000 0.000000 0.000000 0.000000 -0.000000 -2.221480 92.242100 0.785818 88.978700 1.083120 1.708610 15.735700 0.000005 -0.000001 66.265600 85.423500 -61.253000 8.984550 -0.406207 -0.000000 0.809737 -3.986330 10.049200 16.377300 -0.000001 -0.000001 -0.821595 -1.093500 -0.871035 6.456720 -0.000001 -0.000000 -3.164480 -1.362810 9.778030 12.994200 -0.242716 4.980390 -83.530700 -12.611200 -62.554500 5.348090 -0.000007 -0.000001 -67.508600 -63.263200 -69.120300 24.328600 0.000019 0.000005 1.222290 3.374150 -19.925800 22.291600 -0.000001 0.000005 23.026100 5.401740 -2.995610 12.994500 -0.242716 -4.980390 90.882900 -2.158590 -67.747100 -5.348130 -0.000001 -0.000004 -62.861900 69.553700 14.065200 -24.328900 0.000322 -0.000009 21.746000 1.967070 -85.082500 -22.291500 -0.000108 -0.000004 33.990300 5.631430 -28.795700 -2.192480 -6.469440 -0.000000 -170.430000 -17.612000 -4.325010 39.081100 -0.000007 -0.000012 -0.134963 0.382356 19.442000 40.985400 -0.000006 -0.000013 -7.026600 -0.990171 -61.240300 11.754300 -0.000000 0.000003 -0.000135 -0.001330 -16.628300 -2.192510 6.469440 -0.000001 174.459000 20.367600 177.982000 -39.081100 -0.002282 -0.040193 -0.075607 0.229937 18.945800 -40.985400 0.000008 0.000006 -4.797240 -0.012721 -63.412900 -11.754300 -0.000006 -0.000006 -0.000942 -0.014577 -17.166000
0.000000 0.000000 0.000000 0.000000 0.000000 -0.000000 -2.180670 92.269400 0.698908 89.007800 1.186820 1.540080 15.735700 0.000005 -0.000001 66.834600 85.442900 -61.890700 8.984550 -0.406207 -0.000000 0.802829 -3.883890 9.910740 16.377300 -0.000001 -0.000001 -0.956957 -0.977982 -0.934982 6.456720 -0.000001 -0.000000 -3.278490 -1.214500 9.887650 12.994200 -0.242716 4.980390 -83.473100 -12.639800 -62.396900 5.348090 -0.000007 -0.000001 -73.811900 -63.671500 -74.263600 24.328600 0.000019 0.000005 1.176310 3.352940 -19.344300 22.291600 -0.000001 0.000005 23.724300 5.391370 -2.659800 12.994500 -0.242716 -4.980390 90.864200 -2.116950 -67.786600 -5.348130 -0.000001 -0.000004 -63.197400 69.520000 14.402500 -24.328900 0.000322 -0.000009 21.730300 2.001050 -84.994000 -22.291500 -0.000108 -0.000004 33.974000 5.630930 -28.830700 -2.192480 -6.469440 -0.000000 -170.580000 -17.609800 -4.532450 39.081100 -0.000007 -0.000012 -0.131668 0.375981 19.300200 40.985400 -0.000006 -0.000013 -6.951170 -0.945375 -61.094000 11.754300 -0.000000 0.000003 -0.000130 -0.001289 -16.626700 -2.192510 6.469440 -0.000001 174.485000 20.407900 177.837000 -39.081100 -0.002282 -0.040193 -0.074688 0.229483 18.775200 -40.985400 0.000008 0.000006 -4.817850 -0.085889 -63.271800 -11.754300 -0.000006 -0.000006 -0.000883 -0.013727 -17.131500
0.000000 0.000000 0.000000 0.000000 0.000000 -0.000000 -2.138430 92.287100 0.623862 89.004700 1.393280 1.448890 15.735700 0.000005 -0.000001 66.743100 85.440300 -61.864300 8.984550 -0.406207 -0.000000 0.799717 -3.895540 9.780650 16.377300 -0.000001 -0.000001 -1.009260 -0.833357 -1.126350 6.456720 -0.000001 -0.000000 -3.269380 -1.029240 9.892430 12.994200 -0.242716 4.980390 -83.479300 -12.569700 -62.290600 5.348090 -0.000007 -0.000001 -78.347700 -63.855700 -80.027800 24.328600 0.000019 0.000005 1.037870 2.980780 -19.206700 22.291600 -0.000001 0.000005 23.708500 5.381630 -2.349680 12.994500 -0.242716 -4.980390 90.890400 -2.189590 -67.864400 -5.348130 -0.000001 -0.000004 -63.290800 69.588500 14.327100 -24.328900 0.000322 -0.000009 21.703700 2.070030 -84.815500 -22.291500 -0.000108 -0.000004 34.064100 5.629380 -28.949900 -2.192480 -6.469440 -0.000000 -170.660000 -17.597300 -4.710520 39.081100 -0.000007 -0.000012 -0.130626 0.374071 19.249400 40.985400 -0.000006 -0.000013 -6.872090 -0.802201 -60.986600 11.754300 -0.000000 0.000003 -0.000132 -0.001302 -16.627200 -2.192510 6.469440 -0.000001 174.508000 20.508300 177.783000 -39.081100 -0.002282 -0.040193 -0.073344 0.227333 18.636700 -40.985400 0.000008 0.000006 -4.854620 -0.217404 -63.164600 -11.754300 -0.000006 -0.000006 -0.001035 -0.015904 -17.219900
